<svg xmlns="http://www.w3.org/2000/svg" xmlns:xlink="http://www.w3.org/1999/xlink" width="128" zoomAndPan="magnify" viewBox="0 0 96 95.999999" height="128" preserveAspectRatio="xMidYMid meet" version="1.0"><defs><clipPath id="id1"><path d="M 0 6.066406 L 80 6.066406 L 80 83 L 0 83 Z M 0 6.066406 " clip-rule="nonzero"/></clipPath><clipPath id="id2"><path d="M 12 45 L 64 45 L 64 95.316406 L 12 95.316406 Z M 12 45 " clip-rule="nonzero"/></clipPath><clipPath id="id3"><path d="M 0 13 L 91 13 L 91 95.316406 L 0 95.316406 Z M 0 13 " clip-rule="nonzero"/></clipPath></defs><g clip-path="url(#id1)"><path fill="rgb(38.819885%, 63.919067%, 20.779419%)" d="M 78.847656 31.011719 C 79.136719 31.320312 79.121094 31.804688 78.808594 32.097656 L 24.214844 82.609375 C 23.902344 82.898438 23.417969 82.878906 23.125 82.570312 L 0.296875 58.046875 C 0.0078125 57.738281 0.0234375 57.25 0.335938 56.964844 L 54.925781 6.449219 C 55.238281 6.164062 55.726562 6.179688 56.015625 6.492188 L 78.847656 31.011719 " fill-opacity="1" fill-rule="nonzero"/></g><path fill="rgb(49.798584%, 79.60968%, 29.019165%)" d="M 73.996094 31.488281 C 74.234375 31.746094 74.203125 32.167969 73.921875 32.425781 L 24.910156 77.777344 C 24.628906 78.039062 24.207031 78.039062 23.96875 77.78125 L 5.144531 57.566406 C 4.910156 57.308594 4.945312 56.894531 5.222656 56.636719 L 54.238281 11.285156 C 54.515625 11.023438 54.933594 11.023438 55.175781 11.28125 L 73.996094 31.488281 " fill-opacity="1" fill-rule="nonzero"/><path fill="rgb(38.819885%, 63.919067%, 20.779419%)" d="M 46.660156 37.96875 C 50.296875 41.871094 50.070312 47.976562 46.152344 51.597656 C 42.238281 55.222656 36.113281 54.992188 32.480469 51.089844 C 28.847656 47.1875 29.074219 41.085938 32.988281 37.460938 C 36.902344 33.839844 43.027344 34.066406 46.660156 37.96875 " fill-opacity="1" fill-rule="nonzero"/><path fill="rgb(38.819885%, 63.919067%, 20.779419%)" d="M 5.144531 57.566406 L 10.246094 63.046875 C 13.542969 60 13.730469 54.871094 10.675781 51.585938 L 5.222656 56.636719 C 4.945312 56.894531 4.910156 57.308594 5.144531 57.566406 " fill-opacity="1" fill-rule="nonzero"/><path fill="rgb(43.919373%, 71.369934%, 27.449036%)" d="M 24.867188 77.816406 L 30.363281 72.730469 C 27.304688 69.449219 22.160156 69.253906 18.867188 72.304688 L 23.933594 77.738281 C 24.191406 78.019531 24.609375 78.054688 24.867188 77.816406 " fill-opacity="1" fill-rule="nonzero"/><path fill="rgb(38.819885%, 63.919067%, 20.779419%)" d="M 55.175781 11.28125 L 60.273438 16.757812 C 56.984375 19.800781 51.835938 19.613281 48.78125 16.332031 L 54.238281 11.285156 C 54.515625 11.023438 54.933594 11.023438 55.175781 11.28125 " fill-opacity="1" fill-rule="nonzero"/><path fill="rgb(38.819885%, 63.919067%, 20.779419%)" d="M 73.960938 32.386719 L 68.46875 37.472656 C 65.410156 34.191406 65.601562 29.058594 68.894531 26.015625 L 73.957031 31.453125 C 74.21875 31.730469 74.21875 32.152344 73.960938 32.386719 " fill-opacity="1" fill-rule="nonzero"/><path fill="rgb(43.919373%, 71.369934%, 27.449036%)" d="M 95.878906 61.328125 C 95.996094 61.734375 95.761719 62.164062 95.347656 62.277344 L 23.777344 82.824219 C 23.371094 82.9375 22.945312 82.703125 22.824219 82.296875 L 13.539062 50.148438 C 13.417969 49.742188 13.65625 49.316406 14.066406 49.199219 L 85.640625 28.652344 C 86.050781 28.53125 86.476562 28.769531 86.59375 29.175781 L 95.878906 61.328125 " fill-opacity="1" fill-rule="nonzero"/><path fill="rgb(55.288696%, 82.348633%, 37.649536%)" d="M 91.332031 59.578125 C 91.429688 59.914062 91.207031 60.265625 90.839844 60.371094 L 26.582031 78.820312 C 26.214844 78.925781 25.839844 78.738281 25.742188 78.398438 L 18.085938 51.898438 C 17.988281 51.566406 18.207031 51.203125 18.574219 51.097656 L 82.839844 32.652344 C 83.203125 32.550781 83.578125 32.738281 83.679688 33.074219 L 91.332031 59.578125 " fill-opacity="1" fill-rule="nonzero"/><path fill="rgb(43.919373%, 71.369934%, 27.449036%)" d="M 64.003906 53.070312 C 65.484375 58.1875 62.519531 63.53125 57.382812 65.003906 C 52.25 66.480469 46.894531 63.523438 45.414062 58.40625 C 43.933594 53.289062 46.898438 47.941406 52.03125 46.46875 C 57.164062 45 62.527344 47.949219 64.003906 53.070312 " fill-opacity="1" fill-rule="nonzero"/><path fill="rgb(43.919373%, 71.369934%, 27.449036%)" d="M 18.085938 51.898438 L 20.160156 59.078125 C 24.476562 57.84375 26.964844 53.351562 25.726562 49.046875 L 18.574219 51.097656 C 18.207031 51.203125 17.988281 51.566406 18.085938 51.898438 " fill-opacity="1" fill-rule="nonzero"/><path fill="rgb(43.919373%, 71.369934%, 27.449036%)" d="M 26.527344 78.832031 L 33.730469 76.765625 C 32.488281 72.464844 27.984375 69.980469 23.667969 71.21875 L 25.722656 78.347656 C 25.828125 78.710938 26.1875 78.929688 26.527344 78.832031 " fill-opacity="1" fill-rule="nonzero"/><path fill="rgb(43.919373%, 71.369934%, 27.449036%)" d="M 83.679688 33.074219 L 85.753906 40.253906 C 81.433594 41.492188 76.925781 39.007812 75.683594 34.707031 L 82.839844 32.652344 C 83.203125 32.550781 83.578125 32.738281 83.679688 33.074219 " fill-opacity="1" fill-rule="nonzero"/><path fill="rgb(43.919373%, 71.369934%, 27.449036%)" d="M 90.894531 60.359375 L 83.691406 62.429688 C 82.449219 58.121094 84.941406 53.632812 89.257812 52.390625 L 91.3125 59.519531 C 91.417969 59.886719 91.234375 60.261719 90.894531 60.359375 " fill-opacity="1" fill-rule="nonzero"/><g clip-path="url(#id2)"><path fill="rgb(96.469116%, 56.079102%, 20.388794%)" d="M 63.117188 70.199219 C 63.117188 84.042969 51.863281 95.265625 37.972656 95.265625 C 24.089844 95.265625 12.828125 84.042969 12.828125 70.199219 C 12.828125 56.355469 24.089844 45.132812 37.972656 45.132812 C 51.863281 45.132812 63.117188 56.355469 63.117188 70.199219 " fill-opacity="1" fill-rule="nonzero"/></g><path fill="rgb(98.039246%, 73.329163%, 20.388794%)" d="M 57.464844 70.199219 C 57.464844 80.925781 48.738281 89.628906 37.972656 89.628906 C 27.210938 89.628906 18.484375 80.925781 18.484375 70.199219 C 18.484375 59.472656 27.210938 50.769531 37.972656 50.769531 C 48.738281 50.769531 57.464844 59.472656 57.464844 70.199219 " fill-opacity="1" fill-rule="nonzero"/><g clip-path="url(#id3)"><path stroke-linecap="round" transform="matrix(0.0422535, 0, 0, -0.0421208, -41.830985, 140.304911)" fill="none" stroke-linejoin="miter" d="M 2042.796926 1820.569322 C 2042.796926 1820.569322 2034.291717 1919.243873 1904.494837 1928.888753 C 1801.045614 1936.58611 1739.105507 1900.139589 1728.381548 1830.956117 C 1728.381548 1830.956117 1713.682329 1732.374306 1775.160196 1700.472007 C 1848.009157 1662.912615 2049.083384 1658.090175 2051.209686 1524.267453 C 2051.209686 1524.267453 2059.529999 1405.375748 1893.955774 1405.375748 C 1893.955774 1405.375748 1734.390663 1401.109743 1726.07035 1500.897165 " stroke="rgb(96.469116%, 56.079102%, 20.388794%)" stroke-width="76.435997" stroke-opacity="1" stroke-miterlimit="10"/></g><path stroke-linecap="round" transform="matrix(0.0422535, 0, 0, -0.0421208, -41.830985, 140.304911)" fill="none" stroke-linejoin="miter" d="M 1819.812541 2014.67255 L 1819.812541 1923.417138 " stroke="rgb(96.469116%, 56.079102%, 20.388794%)" stroke-width="76.435997" stroke-opacity="1" stroke-miterlimit="10"/><path stroke-linecap="round" transform="matrix(0.0422535, 0, 0, -0.0421208, -41.830985, 140.304911)" fill="none" stroke-linejoin="miter" d="M 1936.574265 2014.67255 L 1936.574265 1923.417138 " stroke="rgb(96.469116%, 56.079102%, 20.388794%)" stroke-width="76.435997" stroke-opacity="1" stroke-miterlimit="10"/><path stroke-linecap="round" transform="matrix(0.0422535, 0, 0, -0.0421208, -41.830985, 140.304911)" fill="none" stroke-linejoin="miter" d="M 1830.259156 1405.375748 L 1830.259156 1314.027598 " stroke="rgb(96.469116%, 56.079102%, 20.388794%)" stroke-width="76.435997" stroke-opacity="1" stroke-miterlimit="10"/><path stroke-linecap="round" transform="matrix(0.0422535, 0, 0, -0.0421208, -41.830985, 140.304911)" fill="none" stroke-linejoin="miter" d="M 1947.113328 1405.375748 L 1947.113328 1314.027598 " stroke="rgb(96.469116%, 56.079102%, 20.388794%)" stroke-width="76.435997" stroke-opacity="1" stroke-miterlimit="10"/></svg>