<svg xmlns="http://www.w3.org/2000/svg" xmlns:xlink="http://www.w3.org/1999/xlink" width="190" zoomAndPan="magnify" viewBox="0 0 142.5 67.499998" height="90" preserveAspectRatio="xMidYMid meet" version="1.0"><defs><g/><clipPath id="id1"><path d="M 4.046875 3.660156 L 56 3.660156 L 56 54 L 4.046875 54 Z M 4.046875 3.660156 " clip-rule="nonzero"/></clipPath><clipPath id="id2"><path d="M 12 29 L 45 29 L 45 61.933594 L 12 61.933594 Z M 12 29 " clip-rule="nonzero"/></clipPath><clipPath id="id3"><path d="M 4.046875 8 L 63 8 L 63 61.933594 L 4.046875 61.933594 Z M 4.046875 8 " clip-rule="nonzero"/></clipPath><clipPath id="id4"><path d="M 85 35.363281 L 98 35.363281 L 98 55 L 85 55 Z M 85 35.363281 " clip-rule="nonzero"/></clipPath><clipPath id="id5"><path d="M 71.25 35.363281 L 84 35.363281 L 84 55 L 71.25 55 Z M 71.25 35.363281 " clip-rule="nonzero"/></clipPath><clipPath id="id6"><path d="M 98 35.363281 L 112 35.363281 L 112 55 L 98 55 Z M 98 35.363281 " clip-rule="nonzero"/></clipPath><clipPath id="id7"><path d="M 111 35.363281 L 134.753906 35.363281 L 134.753906 55 L 111 55 Z M 111 35.363281 " clip-rule="nonzero"/></clipPath><clipPath id="id8"><path d="M 73 35.363281 L 74 35.363281 L 74 55 L 73 55 Z M 73 35.363281 " clip-rule="nonzero"/></clipPath></defs><g clip-path="url(#id1)"><path fill="rgb(38.819885%, 63.919067%, 20.779419%)" d="M 54.980469 19.945312 C 55.164062 20.148438 55.152344 20.464844 54.953125 20.652344 L 19.6875 53.632812 C 19.488281 53.824219 19.171875 53.808594 18.984375 53.609375 L 4.238281 37.597656 C 4.050781 37.398438 4.0625 37.078125 4.265625 36.890625 L 39.523438 3.90625 C 39.726562 3.71875 40.042969 3.730469 40.230469 3.933594 L 54.976562 19.945312 " fill-opacity="1" fill-rule="nonzero"/></g><path fill="rgb(49.798584%, 79.60968%, 29.019165%)" d="M 51.84375 20.257812 C 52 20.425781 51.976562 20.699219 51.796875 20.867188 L 20.136719 50.480469 C 19.957031 50.648438 19.683594 50.648438 19.53125 50.480469 L 7.371094 37.285156 C 7.21875 37.117188 7.242188 36.84375 7.421875 36.675781 L 39.082031 7.066406 C 39.261719 6.894531 39.53125 6.894531 39.6875 7.0625 L 51.84375 20.257812 " fill-opacity="1" fill-rule="nonzero"/><path fill="rgb(38.819885%, 63.919067%, 20.779419%)" d="M 34.1875 24.488281 C 36.539062 27.035156 36.390625 31.023438 33.859375 33.386719 C 31.328125 35.75 27.375 35.601562 25.027344 33.054688 C 22.679688 30.507812 22.828125 26.523438 25.355469 24.15625 C 27.886719 21.792969 31.839844 21.941406 34.1875 24.488281 " fill-opacity="1" fill-rule="nonzero"/><path fill="rgb(38.819885%, 63.919067%, 20.779419%)" d="M 7.371094 37.285156 L 10.667969 40.863281 C 12.796875 38.875 12.917969 35.523438 10.945312 33.378906 L 7.421875 36.675781 C 7.242188 36.84375 7.21875 37.117188 7.371094 37.285156 " fill-opacity="1" fill-rule="nonzero"/><path fill="rgb(43.919373%, 71.369934%, 27.449036%)" d="M 20.109375 50.503906 L 23.660156 47.183594 C 21.683594 45.042969 18.363281 44.914062 16.234375 46.90625 L 19.507812 50.453125 C 19.671875 50.640625 19.941406 50.660156 20.109375 50.503906 " fill-opacity="1" fill-rule="nonzero"/><path fill="rgb(38.819885%, 63.919067%, 20.779419%)" d="M 39.6875 7.0625 L 42.980469 10.636719 C 40.855469 12.625 37.53125 12.5 35.558594 10.359375 L 39.082031 7.066406 C 39.261719 6.894531 39.53125 6.894531 39.6875 7.0625 " fill-opacity="1" fill-rule="nonzero"/><path fill="rgb(38.819885%, 63.919067%, 20.779419%)" d="M 51.820312 20.84375 L 48.273438 24.164062 C 46.296875 22.019531 46.421875 18.671875 48.546875 16.683594 L 51.820312 20.234375 C 51.988281 20.414062 51.988281 20.6875 51.820312 20.84375 " fill-opacity="1" fill-rule="nonzero"/><path fill="rgb(43.919373%, 71.369934%, 27.449036%)" d="M 65.976562 39.738281 C 66.054688 40.003906 65.902344 40.285156 65.636719 40.359375 L 19.40625 53.773438 C 19.144531 53.847656 18.867188 53.695312 18.792969 53.429688 L 12.792969 32.441406 C 12.714844 32.175781 12.867188 31.894531 13.132812 31.820312 L 59.363281 18.402344 C 59.628906 18.328125 59.90625 18.480469 59.980469 18.746094 L 65.976562 39.738281 " fill-opacity="1" fill-rule="nonzero"/><path fill="rgb(55.288696%, 82.348633%, 37.649536%)" d="M 63.042969 38.59375 C 63.105469 38.816406 62.960938 39.046875 62.722656 39.117188 L 21.21875 51.160156 C 20.980469 51.230469 20.738281 51.105469 20.675781 50.886719 L 15.730469 33.582031 C 15.667969 33.363281 15.808594 33.128906 16.046875 33.058594 L 57.554688 21.015625 C 57.789062 20.949219 58.03125 21.070312 58.097656 21.292969 L 63.042969 38.59375 " fill-opacity="1" fill-rule="nonzero"/><path fill="rgb(43.919373%, 71.369934%, 27.449036%)" d="M 45.390625 34.347656 C 46.347656 37.6875 44.429688 41.179688 41.113281 42.140625 C 37.796875 43.101562 34.335938 41.171875 33.382812 37.832031 C 32.425781 34.488281 34.339844 31 37.65625 30.035156 C 40.972656 29.078125 44.4375 31.003906 45.390625 34.347656 " fill-opacity="1" fill-rule="nonzero"/><path fill="rgb(43.919373%, 71.369934%, 27.449036%)" d="M 15.730469 33.582031 L 17.070312 38.269531 C 19.859375 37.464844 21.464844 34.53125 20.667969 31.71875 L 16.046875 33.058594 C 15.808594 33.128906 15.667969 33.363281 15.730469 33.582031 " fill-opacity="1" fill-rule="nonzero"/><path fill="rgb(43.919373%, 71.369934%, 27.449036%)" d="M 21.183594 51.167969 L 25.835938 49.820312 C 25.035156 47.011719 22.125 45.386719 19.335938 46.195312 L 20.664062 50.851562 C 20.730469 51.089844 20.964844 51.234375 21.183594 51.167969 " fill-opacity="1" fill-rule="nonzero"/><path fill="rgb(43.919373%, 71.369934%, 27.449036%)" d="M 58.097656 21.292969 L 59.4375 25.980469 C 56.648438 26.789062 53.738281 25.167969 52.933594 22.359375 L 57.554688 21.015625 C 57.789062 20.949219 58.03125 21.070312 58.097656 21.292969 " fill-opacity="1" fill-rule="nonzero"/><path fill="rgb(43.919373%, 71.369934%, 27.449036%)" d="M 62.761719 39.105469 L 58.105469 40.457031 C 57.304688 37.648438 58.914062 34.714844 61.699219 33.902344 L 63.03125 38.558594 C 63.097656 38.800781 62.976562 39.042969 62.761719 39.105469 " fill-opacity="1" fill-rule="nonzero"/><g clip-path="url(#id2)"><path fill="rgb(96.469116%, 56.079102%, 20.388794%)" d="M 44.816406 45.53125 C 44.816406 54.570312 37.546875 61.898438 28.574219 61.898438 C 19.609375 61.898438 12.332031 54.570312 12.332031 45.53125 C 12.332031 36.492188 19.609375 29.164062 28.574219 29.164062 C 37.546875 29.164062 44.816406 36.492188 44.816406 45.53125 " fill-opacity="1" fill-rule="nonzero"/></g><path fill="rgb(98.039246%, 73.329163%, 20.388794%)" d="M 41.167969 45.53125 C 41.167969 52.535156 35.53125 58.21875 28.574219 58.21875 C 21.625 58.21875 15.988281 52.535156 15.988281 45.53125 C 15.988281 38.527344 21.625 32.84375 28.574219 32.84375 C 35.53125 32.84375 41.167969 38.527344 41.167969 45.53125 " fill-opacity="1" fill-rule="nonzero"/><g clip-path="url(#id3)"><path stroke-linecap="round" transform="matrix(0.0272927, 0, 0, -0.027502, -22.971899, 91.305917)" fill="none" stroke-linejoin="miter" d="M 2042.783591 1820.653252 C 2042.783591 1820.653252 2034.339265 1919.225755 1904.52564 1928.884156 C 1801.046863 1936.554062 1739.074096 1900.050989 1728.339783 1831.021829 C 1728.339783 1831.021829 1713.741117 1732.449327 1775.141388 1700.491382 C 1847.991592 1662.852026 2049.081055 1658.164861 2051.227917 1524.367602 C 2051.227917 1524.367602 2059.529119 1405.342015 1893.934451 1405.342015 C 1893.934451 1405.342015 1734.350998 1401.080956 1726.049796 1500.931776 " stroke="rgb(96.469116%, 56.079102%, 20.388794%)" stroke-width="76.435997" stroke-opacity="1" stroke-miterlimit="10"/></g><path stroke-linecap="round" transform="matrix(0.0272927, 0, 0, -0.027502, -22.971899, 91.305917)" fill="none" stroke-linejoin="miter" d="M 1819.79613 2014.673481 L 1819.79613 1923.344779 " stroke="rgb(96.469116%, 56.079102%, 20.388794%)" stroke-width="76.435997" stroke-opacity="1" stroke-miterlimit="10"/><path stroke-linecap="round" transform="matrix(0.0272927, 0, 0, -0.027502, -22.971899, 91.305917)" fill="none" stroke-linejoin="miter" d="M 1936.585455 2014.673481 L 1936.585455 1923.344779 " stroke="rgb(96.469116%, 56.079102%, 20.388794%)" stroke-width="76.435997" stroke-opacity="1" stroke-miterlimit="10"/><path stroke-linecap="round" transform="matrix(0.0272927, 0, 0, -0.027502, -22.971899, 91.305917)" fill="none" stroke-linejoin="miter" d="M 1830.244194 1405.342015 L 1830.244194 1314.013312 " stroke="rgb(96.469116%, 56.079102%, 20.388794%)" stroke-width="76.435997" stroke-opacity="1" stroke-miterlimit="10"/><path stroke-linecap="round" transform="matrix(0.0272927, 0, 0, -0.027502, -22.971899, 91.305917)" fill="none" stroke-linejoin="miter" d="M 1947.033519 1405.342015 L 1947.033519 1314.013312 " stroke="rgb(96.469116%, 56.079102%, 20.388794%)" stroke-width="76.435997" stroke-opacity="1" stroke-miterlimit="10"/><g clip-path="url(#id4)"><path fill="rgb(91.758728%, 67.83905%, 34.118652%)" d="M 94.0625 35.417969 C 95.964844 35.621094 96.996094 35.761719 97.160156 35.832031 L 97.160156 35.878906 L 96.609375 54.613281 L 96.585938 54.640625 L 96.527344 54.640625 C 94.644531 54.640625 93.703125 54.59375 93.703125 54.503906 L 89 44.367188 L 88.945312 44.367188 L 88.945312 44.402344 L 89.386719 54.585938 L 89.355469 54.640625 L 85.742188 54.75 L 85.71875 54.695312 L 85.167969 35.664062 L 85.195312 35.640625 L 85.25 35.640625 L 88.726562 35.621094 C 91.445312 42.507812 92.859375 46.167969 92.96875 46.597656 L 93 46.597656 L 93.980469 35.445312 L 94.011719 35.417969 Z M 94.0625 35.417969 " fill-opacity="1" fill-rule="nonzero"/></g><g clip-path="url(#id5)"><path fill="rgb(29.40979%, 29.40979%, 57.249451%)" d="M 80.183594 35.777344 C 82.675781 36.125 83.917969 36.335938 83.917969 36.410156 L 77.339844 44.945312 L 83.167969 54.226562 L 83.113281 54.253906 L 83.085938 54.253906 L 79.390625 54.859375 C 76.5625 49.996094 75.105469 47.425781 75.027344 47.148438 L 74.945312 47.148438 L 75.378906 54.417969 C 74.558594 54.492188 73.402344 54.539062 71.90625 54.554688 L 71.34375 35.640625 C 71.742188 35.582031 73.019531 35.546875 75.175781 35.527344 L 75.191406 35.582031 L 75.191406 42.714844 L 75.273438 42.714844 L 77.792969 39.101562 L 80.15625 35.777344 Z M 80.183594 35.777344 " fill-opacity="1" fill-rule="nonzero"/></g><g clip-path="url(#id6)"><path fill="rgb(63.919067%, 81.568909%, 85.879517%)" d="M 104.8125 54.53125 L 104.265625 54.53125 C 102.238281 54.53125 100.761719 53.953125 99.832031 52.796875 C 99.03125 51.65625 98.628906 50.152344 98.628906 48.273438 C 98.421875 45.53125 98.402344 42.785156 98.574219 40.039062 C 98.726562 39.195312 98.972656 38.378906 99.316406 37.59375 C 99.785156 36.800781 100.453125 36.25 101.3125 35.941406 C 102.222656 35.554688 103.417969 35.363281 104.894531 35.363281 C 105.828125 35.355469 106.726562 35.535156 107.59375 35.890625 C 108.457031 36.25 109.21875 36.761719 109.875 37.429688 C 110.773438 38.363281 111.265625 39.273438 111.355469 40.15625 L 111.4375 40.671875 L 111.464844 44.609375 L 111.4375 47.777344 C 111.363281 48.933594 110.945312 50.21875 110.179688 51.632812 C 109.757812 52.269531 109.242188 52.820312 108.640625 53.285156 C 107.496094 54.113281 106.21875 54.527344 104.8125 54.53125 Z M 104.8125 54.53125 " fill-opacity="1" fill-rule="nonzero"/></g><path fill="rgb(90.589905%, 49.409485%, 30.198669%)" d="M 104.707031 48.566406 C 104.625 48.730469 104.375 48.628906 104.238281 48.5 C 103.382812 47.695312 102.707031 46.761719 102.210938 45.695312 C 101.710938 44.628906 101.425781 43.511719 101.351562 42.335938 C 101.3125 41.976562 101.355469 41.625 101.484375 41.289062 C 101.554688 41.121094 101.667969 40.988281 101.820312 40.886719 C 101.972656 40.789062 102.140625 40.742188 102.320312 40.75 C 102.671875 40.839844 102.929688 41.046875 103.089844 41.371094 C 103.449219 41.941406 103.6875 42.554688 103.8125 43.214844 C 103.761719 42.355469 103.9375 41.546875 104.339844 40.785156 C 104.476562 40.527344 104.691406 40.25 104.984375 40.269531 C 105.371094 40.269531 105.546875 40.753906 105.601562 41.132812 C 105.710938 41.855469 105.738281 42.574219 105.683594 43.300781 C 105.722656 42.71875 105.859375 42.160156 106.09375 41.625 C 106.351562 41.035156 106.867188 40.433594 107.503906 40.503906 C 108.054688 40.566406 108.425781 41.117188 108.5625 41.652344 C 108.855469 42.796875 108.429688 44 107.917969 45.0625 C 107.511719 45.90625 107.046875 46.71875 106.523438 47.496094 C 106.066406 48.171875 105.355469 48.902344 104.570312 48.675781 " fill-opacity="1" fill-rule="nonzero"/><g clip-path="url(#id7)"><path fill="rgb(90.589905%, 49.409485%, 30.198669%)" d="M 131.789062 38.636719 C 132.117188 37.128906 131.175781 35.792969 131.175781 35.792969 C 129.859375 36.457031 129.164062 38.445312 129.164062 38.445312 C 128.976562 36.75 127.613281 35.417969 127.613281 35.417969 L 125.890625 50.492188 C 125.65625 50.007812 124.796875 47.863281 123.304688 44.058594 C 123.175781 43.726562 122.964844 43.453125 122.679688 43.242188 C 122.390625 43.03125 122.066406 42.914062 121.710938 42.894531 L 121.679688 42.894531 C 121.316406 42.871094 120.976562 42.949219 120.660156 43.125 C 120.34375 43.304688 120.101562 43.558594 119.933594 43.882812 L 117.347656 48.859375 L 117.347656 48.773438 L 118.949219 35.824219 C 117.617188 36.175781 116.953125 38.183594 116.953125 38.183594 C 116.953125 36.832031 115.605469 35.820312 115.605469 35.820312 C 114.601562 36.496094 114.265625 38.183594 114.265625 38.183594 C 113.96875 36.988281 112.351562 36.320312 111.992188 36.183594 L 114.460938 54.367188 C 115.335938 54.511719 116.414062 54.640625 117.691406 54.75 L 121.851562 45.828125 C 121.886719 45.828125 122.078125 46.40625 122.425781 47.5625 L 124.53125 54.585938 L 124.585938 54.585938 L 128.4375 54.554688 L 128.492188 54.53125 L 134.695312 36.21875 C 132.839844 36.367188 131.789062 38.636719 131.789062 38.636719 Z M 131.789062 38.636719 " fill-opacity="1" fill-rule="nonzero"/></g><g clip-path="url(#id8)"><path fill="rgb(63.919067%, 81.568909%, 85.879517%)" d="M 73.109375 35.558594 L 73.671875 54.519531 L 73.835938 54.519531 L 73.277344 35.554688 Z M 73.109375 35.558594 " fill-opacity="1" fill-rule="nonzero"/></g><path fill="rgb(63.919067%, 81.568909%, 85.879517%)" d="M 82.152344 36.0625 L 81.964844 36.035156 L 75.386719 45.105469 L 81.03125 54.589844 L 81.207031 54.558594 L 75.585938 45.113281 Z M 82.152344 36.0625 " fill-opacity="1" fill-rule="nonzero"/><g fill="rgb(62.348938%, 24.708557%, 45.098877%)" fill-opacity="1"><g transform="translate(67.805488, 32.434614)"><g><path d="M 15.265625 -13.039062 L 12.832031 -3.789062 L 10.257812 -13.039062 L 7.5625 -13.039062 L 5.007812 -3.808594 L 2.574219 -13.039062 L -0.296875 -13.039062 L 3.339844 0 L 6.449219 0 L 8.917969 -9.476562 L 11.386719 0 L 14.5 0 L 18.113281 -13.039062 Z M 15.265625 -13.039062 "/></g></g></g><g fill="rgb(62.348938%, 24.708557%, 45.098877%)" fill-opacity="1"><g transform="translate(85.621703, 32.434614)"><g><path d="M 7.546875 0.175781 C 9.386719 0.175781 10.96875 -0.46875 12.273438 -1.773438 C 13.578125 -3.078125 14.238281 -4.660156 14.238281 -6.519531 C 14.238281 -8.363281 13.578125 -9.945312 12.273438 -11.25 C 10.96875 -12.550781 9.386719 -13.210938 7.546875 -13.210938 C 5.683594 -13.210938 4.101562 -12.550781 2.800781 -11.25 C 1.496094 -9.945312 0.851562 -8.363281 0.851562 -6.519531 C 0.851562 -4.660156 1.496094 -3.078125 2.800781 -1.773438 C 4.101562 -0.46875 5.683594 0.175781 7.546875 0.175781 Z M 7.546875 -2.484375 C 6.398438 -2.484375 5.441406 -2.867188 4.675781 -3.652344 C 3.894531 -4.414062 3.511719 -5.371094 3.511719 -6.519531 C 3.511719 -7.648438 3.894531 -8.605469 4.675781 -9.386719 C 5.441406 -10.152344 6.398438 -10.550781 7.546875 -10.550781 C 8.675781 -10.550781 9.632812 -10.152344 10.414062 -9.386719 C 11.179688 -8.605469 11.578125 -7.648438 11.578125 -6.519531 C 11.578125 -5.371094 11.179688 -4.414062 10.414062 -3.652344 C 9.632812 -2.867188 8.675781 -2.484375 7.546875 -2.484375 Z M 7.546875 -2.484375 "/></g></g></g><g fill="rgb(62.348938%, 24.708557%, 45.098877%)" fill-opacity="1"><g transform="translate(100.708989, 32.434614)"><g><path d="M 7.945312 -5.425781 C 8.726562 -5.632812 9.371094 -6.085938 9.875 -6.746094 C 10.378906 -7.40625 10.640625 -8.1875 10.640625 -9.074219 C 10.640625 -10.1875 10.257812 -11.125 9.527344 -11.890625 C 8.78125 -12.65625 7.859375 -13.039062 6.761719 -13.039062 L 1.320312 -13.039062 L 1.320312 0 L 4.035156 0 L 4.035156 -5.144531 L 5.269531 -5.144531 L 8.5 0 L 11.628906 0 Z M 6.378906 -7.386719 L 4.035156 -7.386719 L 4.035156 -10.621094 L 6.378906 -10.621094 C 6.851562 -10.621094 7.25 -10.464844 7.5625 -10.152344 C 7.875 -9.839844 8.03125 -9.457031 8.03125 -9.003906 C 8.03125 -8.535156 7.875 -8.152344 7.5625 -7.839844 C 7.25 -7.527344 6.851562 -7.386719 6.378906 -7.386719 Z M 6.378906 -7.386719 "/></g></g></g><g fill="rgb(62.348938%, 24.708557%, 45.098877%)" fill-opacity="1"><g transform="translate(112.337323, 32.434614)"><g><path d="M 9.507812 -13.039062 L 0.175781 -13.039062 L 0.175781 -10.621094 L 3.496094 -10.621094 L 3.496094 0 L 6.1875 0 L 6.1875 -10.621094 L 9.507812 -10.621094 Z M 9.507812 -13.039062 "/></g></g></g><g fill="rgb(62.348938%, 24.708557%, 45.098877%)" fill-opacity="1"><g transform="translate(122.018913, 32.434614)"><g><path d="M 9.527344 -13.039062 L 9.527344 -7.734375 L 4.035156 -7.734375 L 4.035156 -13.039062 L 1.320312 -13.039062 L 1.320312 0 L 4.035156 0 L 4.035156 -5.320312 L 9.527344 -5.320312 L 9.527344 0 L 12.222656 0 L 12.222656 -13.039062 Z M 9.527344 -13.039062 "/></g></g></g><path stroke-linecap="butt" transform="matrix(0.747097, 0, 0, 0.747097, 60.790631, 16.069367)" fill="none" stroke-linejoin="miter" d="M 28.911883 3.546235 L 25.659713 15.927484 L 22.214087 3.546235 L 18.606375 3.546235 L 15.186891 15.90657 L 11.929494 3.546235 L 8.086496 3.546235 L 12.949064 20.999195 L 17.121462 20.999195 L 20.420688 8.319918 L 23.725143 20.999195 L 27.892312 20.999195 L 32.733966 3.546235 Z M 42.43296 21.234481 C 44.900844 21.234481 47.018414 20.371767 48.759527 18.625425 C 50.505869 16.879084 51.389497 14.761514 51.389497 12.272715 C 51.389497 9.81006 50.505869 7.687261 48.759527 5.946148 C 47.018414 4.199806 44.900844 3.316178 42.43296 3.316178 C 39.938933 3.316178 37.826591 4.199806 36.075021 5.946148 C 34.333908 7.687261 33.471194 9.81006 33.471194 12.272715 C 33.471194 14.761514 34.333908 16.879084 36.075021 18.625425 C 37.826591 20.371767 39.938933 21.234481 42.43296 21.234481 Z M 42.43296 17.668597 C 40.890532 17.668597 39.614762 17.161426 38.589962 16.115713 C 37.549477 15.090913 37.031849 13.809914 37.031849 12.272715 C 37.031849 10.761659 37.549477 9.48066 38.589962 8.434946 C 39.614762 7.410147 40.890532 6.876833 42.43296 6.876833 C 43.944016 6.876833 45.219787 7.410147 46.2655 8.434946 C 47.295528 9.48066 47.828842 10.761659 47.828842 12.272715 C 47.828842 13.809914 47.295528 15.090913 46.2655 16.115713 C 45.219787 17.161426 43.944016 17.668597 42.43296 17.668597 Z M 63.159004 13.741943 C 64.204718 13.4596 65.07266 12.853086 65.747145 11.974687 C 66.416402 11.08583 66.766716 10.040117 66.766716 8.853232 C 66.766716 7.36309 66.259545 6.108233 65.281803 5.083434 C 64.272689 4.058635 63.043976 3.546235 61.574748 3.546235 L 54.291352 3.546235 L 54.291352 20.999195 L 57.925207 20.999195 L 57.925207 14.113171 L 59.577435 14.113171 L 63.906689 20.999195 L 68.094772 20.999195 Z M 61.062348 11.106744 L 57.925207 11.106744 L 57.925207 6.77749 L 61.062348 6.77749 C 61.695005 6.77749 62.228319 6.991861 62.651833 7.410147 C 63.06489 7.833661 63.274033 8.340832 63.274033 8.942117 C 63.274033 9.574774 63.06489 10.087174 62.651833 10.505459 C 62.228319 10.923745 61.695005 11.106744 61.062348 11.106744 Z M 80.821107 3.546235 L 68.324829 3.546235 L 68.324829 6.77749 L 72.763884 6.77749 L 72.763884 20.999195 L 76.371596 20.999195 L 76.371596 6.77749 L 80.821107 6.77749 Z M 93.803642 3.546235 L 93.803642 10.641402 L 86.447046 10.641402 L 86.447046 3.546235 L 82.81842 3.546235 L 82.81842 20.999195 L 86.447046 20.999195 L 86.447046 13.883114 L 93.803642 13.883114 L 93.803642 20.999195 L 97.406125 20.999195 L 97.406125 3.546235 Z M 93.803642 3.546235 " stroke="rgb(9.799194%, 9.799194%, 9.799194%)" stroke-width="0.872734" stroke-opacity="1" stroke-miterlimit="4"/></svg>